<?xml version="1.0" encoding="UTF-8" standalone="no"?>
<!DOCTYPE svg PUBLIC "-//W3C//DTD SVG 1.1//EN" "http://www.w3.org/Graphics/SVG/1.1/DTD/svg11.dtd">
<svg version="1.1" xmlns="http://www.w3.org/2000/svg" xmlns:xlink="http://www.w3.org/1999/xlink" preserveAspectRatio="xMidYMid meet" viewBox="0 0 640 640" width="640" height="640"><defs><path d="M389.53 218.83L297.97 218.83L297.97 130.64L389.53 130.64L389.53 218.83Z" id="b4iGD9KCSG"></path><path d="M306.29 174.73C306.29 154.96 323.08 138.91 343.75 138.91C364.42 138.91 381.2 154.96 381.2 174.73C381.2 194.5 364.42 210.56 343.75 210.56C323.08 210.56 306.29 194.5 306.29 174.73Z" id="c1yusxBVyc"></path><path d="M301.49 136.56C301.49 135.28 302.57 134.23 303.89 134.23C305.22 134.23 306.29 135.28 306.29 136.56C306.29 137.85 305.22 138.91 303.89 138.91C302.57 138.91 301.49 137.85 301.49 136.56Z" id="b2cWeLRTW"></path><path d="M301.49 212.9C301.49 211.61 302.57 210.56 303.89 210.56C305.22 210.56 306.29 211.61 306.29 212.9C306.29 214.18 305.22 215.23 303.89 215.23C302.57 215.23 301.49 214.18 301.49 212.9Z" id="e1cDzpGAXu"></path><path d="M381.2 212.9C381.2 211.61 382.28 210.56 383.61 210.56C384.93 210.56 386.01 211.61 386.01 212.9C386.01 214.18 384.93 215.23 383.61 215.23C382.28 215.23 381.2 214.18 381.2 212.9Z" id="ct0XL4Tqd"></path><path d="M381.2 136.56C381.2 135.28 382.28 134.23 383.61 134.23C384.93 134.23 386.01 135.28 386.01 136.56C386.01 137.85 384.93 138.91 383.61 138.91C382.28 138.91 381.2 137.85 381.2 136.56Z" id="bqJUTEXdK"></path><path d="M349.86 207.96C348.98 207.96 346.77 207.96 343.23 207.96C340.09 207.96 338.14 207.96 337.36 207.96C334.89 207.96 333.1 205.72 333.74 203.44C334.29 201.51 335.66 196.69 337.84 188.96C339.98 182.01 341.32 177.66 341.85 175.92C342.26 174.61 344.2 174.61 344.6 175.92C345.14 177.66 346.48 182.01 348.61 188.96C350.91 197.06 352.34 202.12 352.92 204.15C353.46 206.07 351.95 207.96 349.86 207.96Z" id="i8ZIKBymD"></path><path d="M349.86 142.53C348.98 142.53 346.77 142.53 343.23 142.53C340.09 142.53 338.14 142.53 337.36 142.53C334.89 142.53 333.1 144.77 333.74 147.05C334.29 148.98 335.66 153.81 337.84 161.53C339.98 168.48 341.32 172.83 341.85 174.57C342.26 175.89 344.2 175.89 344.6 174.57C345.14 172.83 346.48 168.48 348.61 161.53C350.91 153.43 352.34 148.37 352.92 146.35C353.46 144.42 351.95 142.53 349.86 142.53Z" id="ddnvGfzrt"></path><path d="M376.39 189.01C375.94 189.74 374.8 191.56 373 194.46C371.39 197.04 370.39 198.65 369.99 199.29C368.73 201.32 365.8 201.65 364.08 199.95C362.62 198.51 358.99 194.92 353.18 189.17C348.02 183.85 344.8 180.53 343.51 179.2C342.53 178.2 343.53 176.6 344.91 176.94C346.75 177.39 351.34 178.52 358.68 180.32C367.13 182.58 372.41 183.99 374.53 184.55C376.53 185.09 377.45 187.3 376.39 189.01Z" id="a5oGhH22DW"></path><path d="M369.69 153.31C370.16 154.03 371.32 155.83 373.18 158.71C374.83 161.26 375.86 162.85 376.27 163.48C377.57 165.49 376.52 168.13 374.16 168.8C372.15 169.37 367.14 170.8 359.12 173.08C351.82 175 347.25 176.21 345.42 176.69C344.04 177.05 343.02 175.47 343.97 174.45C345.24 173.1 348.4 169.73 353.46 164.33C359.45 158.2 363.2 154.37 364.69 152.83C366.12 151.38 368.59 151.62 369.69 153.31Z" id="b9ak55DBdf"></path><path d="M311.48 187.89C311.96 188.6 313.15 190.38 315.06 193.23C316.75 195.76 317.8 197.34 318.22 197.97C319.55 199.96 322.49 200.19 324.15 198.44C325.55 196.97 329.07 193.26 334.69 187.34C339.66 181.87 342.77 178.45 344.02 177.08C344.95 176.05 343.91 174.48 342.54 174.86C340.72 175.37 336.17 176.64 328.89 178.66C320.52 181.17 315.29 182.75 313.2 183.38C311.21 183.97 310.36 186.21 311.48 187.89Z" id="b8xsUKzMNE"></path><path d="M317.6 153.18C317.12 153.89 315.93 155.68 314.03 158.54C312.36 161.06 311.3 162.64 310.88 163.28C309.56 165.27 310.58 167.92 312.93 168.62C314.93 169.21 319.92 170.7 327.91 173.08C335.19 175.08 339.74 176.33 341.57 176.84C342.94 177.22 343.98 175.65 343.04 174.62C341.79 173.25 338.67 169.84 333.68 164.38C327.77 158.19 324.07 154.31 322.6 152.77C321.19 151.29 318.71 151.5 317.6 153.18Z" id="akXFqIgVE"></path><path d="M333.18 175.56C333.18 170.2 337.72 165.86 343.32 165.86C348.91 165.86 353.46 170.2 353.46 175.56C353.46 180.91 348.91 185.26 343.32 185.26C337.72 185.26 333.18 180.91 333.18 175.56Z" id="b11UpuCylw"></path><path d="M336.35 175.56C336.35 171.84 339.47 168.82 343.32 168.82C347.16 168.82 350.29 171.84 350.29 175.56C350.29 179.28 347.16 182.29 343.32 182.29C339.47 182.29 336.35 179.28 336.35 175.56Z" id="aB7IfS6nm"></path></defs><g><g><g><use xlink:href="#b4iGD9KCSG" opacity="1" fill="#4f535e" fill-opacity="1"></use><g><use xlink:href="#b4iGD9KCSG" opacity="1" fill-opacity="0" stroke="#000000" stroke-width="1" stroke-opacity="0"></use></g></g><g><use xlink:href="#c1yusxBVyc" opacity="1" fill="#2a3944" fill-opacity="1"></use><g><use xlink:href="#c1yusxBVyc" opacity="1" fill-opacity="0" stroke="#000000" stroke-width="1" stroke-opacity="0"></use></g></g><g><use xlink:href="#b2cWeLRTW" opacity="1" fill="#2a3944" fill-opacity="1"></use><g><use xlink:href="#b2cWeLRTW" opacity="1" fill-opacity="0" stroke="#000000" stroke-width="1" stroke-opacity="0"></use></g></g><g><use xlink:href="#e1cDzpGAXu" opacity="1" fill="#2a3944" fill-opacity="1"></use><g><use xlink:href="#e1cDzpGAXu" opacity="1" fill-opacity="0" stroke="#000000" stroke-width="1" stroke-opacity="0"></use></g></g><g><use xlink:href="#ct0XL4Tqd" opacity="1" fill="#2a3944" fill-opacity="1"></use><g><use xlink:href="#ct0XL4Tqd" opacity="1" fill-opacity="0" stroke="#000000" stroke-width="1" stroke-opacity="0"></use></g></g><g><use xlink:href="#bqJUTEXdK" opacity="1" fill="#2a3944" fill-opacity="1"></use><g><use xlink:href="#bqJUTEXdK" opacity="1" fill-opacity="0" stroke="#000000" stroke-width="1" stroke-opacity="0"></use></g></g><g><use xlink:href="#i8ZIKBymD" opacity="1" fill="#79b42a" fill-opacity="1"></use><g><use xlink:href="#i8ZIKBymD" opacity="1" fill-opacity="0" stroke="#000000" stroke-width="1" stroke-opacity="0"></use></g></g><g><use xlink:href="#ddnvGfzrt" opacity="1" fill="#79b42a" fill-opacity="1"></use><g><use xlink:href="#ddnvGfzrt" opacity="1" fill-opacity="0" stroke="#000000" stroke-width="1" stroke-opacity="0"></use></g></g><g><use xlink:href="#a5oGhH22DW" opacity="1" fill="#79b42a" fill-opacity="1"></use><g><use xlink:href="#a5oGhH22DW" opacity="1" fill-opacity="0" stroke="#000000" stroke-width="1" stroke-opacity="0"></use></g></g><g><use xlink:href="#b9ak55DBdf" opacity="1" fill="#79b42a" fill-opacity="1"></use><g><use xlink:href="#b9ak55DBdf" opacity="1" fill-opacity="0" stroke="#000000" stroke-width="1" stroke-opacity="0"></use></g></g><g><use xlink:href="#b8xsUKzMNE" opacity="1" fill="#79b42a" fill-opacity="1"></use><g><use xlink:href="#b8xsUKzMNE" opacity="1" fill-opacity="0" stroke="#000000" stroke-width="1" stroke-opacity="0"></use></g></g><g><use xlink:href="#akXFqIgVE" opacity="1" fill="#79b42a" fill-opacity="1"></use><g><use xlink:href="#akXFqIgVE" opacity="1" fill-opacity="0" stroke="#000000" stroke-width="1" stroke-opacity="0"></use></g></g><g><use xlink:href="#b11UpuCylw" opacity="1" fill="#f7da5c" fill-opacity="1"></use><g><use xlink:href="#b11UpuCylw" opacity="1" fill-opacity="0" stroke="#000000" stroke-width="1" stroke-opacity="0"></use></g></g><g><use xlink:href="#aB7IfS6nm" opacity="1" fill="#faa05b" fill-opacity="1"></use><g><use xlink:href="#aB7IfS6nm" opacity="1" fill-opacity="0" stroke="#000000" stroke-width="1" stroke-opacity="0"></use></g></g></g></g></svg>