<?xml version="1.0" encoding="UTF-8" standalone="no"?>
<!DOCTYPE svg PUBLIC "-//W3C//DTD SVG 1.1//EN" "http://www.w3.org/Graphics/SVG/1.1/DTD/svg11.dtd">
<svg version="1.1" xmlns="http://www.w3.org/2000/svg" xmlns:xlink="http://www.w3.org/1999/xlink" preserveAspectRatio="xMidYMid meet" viewBox="0 0 640 640" width="640" height="640"><defs><path d="M37.93 180.93L114.42 180.93L114.42 258.2L37.93 258.2L37.93 180.93Z" id="c1GrAffDOh"></path><path d="M46.55 253.04C44.78 253.04 43.32 251.62 43.32 249.87C43.32 237.17 43.32 202.21 43.32 189.51C43.32 187.76 44.78 186.34 46.55 186.34C59.06 186.34 93.29 186.34 105.8 186.34C107.57 186.34 109.03 187.76 109.03 189.51C109.03 202.21 109.03 237.17 109.03 249.87C109.03 251.62 107.57 253.04 105.8 253.04C93.29 253.04 59.06 253.04 46.55 253.04Z" id="a3g8sJ1dRl"></path><path d="M47.39 190.68L105.2 190.68L105.2 249.17L47.39 249.17L47.39 190.68Z" id="g2z9blMOWj"></path><path d="M43.32 185.05C43.32 185.75 42.71 186.34 41.95 186.34C41.19 186.34 40.58 185.75 40.58 185.05C40.58 184.33 41.19 183.75 41.95 183.75C42.71 183.75 43.32 184.33 43.32 185.05Z" id="b1fL8snFNj"></path><path d="M111.77 185.05C111.77 185.75 111.16 186.34 110.4 186.34C109.64 186.34 109.03 185.75 109.03 185.05C109.03 184.33 109.64 183.75 110.4 183.75C111.16 183.75 111.77 184.33 111.77 185.05Z" id="b3XpZR9TWz"></path><path d="M43.32 254.33C43.32 255.04 42.71 255.63 41.95 255.63C41.19 255.63 40.58 255.04 40.58 254.33C40.58 253.63 41.19 253.04 41.95 253.04C42.71 253.04 43.32 253.63 43.32 254.33Z" id="b4sQQFltW"></path><path d="M111.77 254.33C111.77 255.04 111.16 255.63 110.4 255.63C109.64 255.63 109.03 255.04 109.03 254.33C109.03 253.63 109.64 253.04 110.4 253.04C111.16 253.04 111.77 253.63 111.77 254.33Z" id="eH5DyYni8"></path></defs><g><g><g><use xlink:href="#c1GrAffDOh" opacity="1" fill="#f17f33" fill-opacity="1"></use><g><use xlink:href="#c1GrAffDOh" opacity="1" fill-opacity="0" stroke="#000000" stroke-width="1" stroke-opacity="0"></use></g></g><g><use xlink:href="#a3g8sJ1dRl" opacity="1" fill="#e5eaee" fill-opacity="1"></use><g><use xlink:href="#a3g8sJ1dRl" opacity="1" fill-opacity="0" stroke="#000000" stroke-width="1" stroke-opacity="0"></use></g></g><g><use xlink:href="#g2z9blMOWj" opacity="1" fill="#c3c7d2" fill-opacity="1"></use><g><use xlink:href="#g2z9blMOWj" opacity="1" fill-opacity="0" stroke="#000000" stroke-width="1" stroke-opacity="0"></use></g></g><g><use xlink:href="#b1fL8snFNj" opacity="1" fill="#fbdb1a" fill-opacity="1"></use><g><use xlink:href="#b1fL8snFNj" opacity="1" fill-opacity="0" stroke="#000000" stroke-width="1" stroke-opacity="0"></use></g></g><g><use xlink:href="#b3XpZR9TWz" opacity="1" fill="#fbdb1a" fill-opacity="1"></use><g><use xlink:href="#b3XpZR9TWz" opacity="1" fill-opacity="0" stroke="#000000" stroke-width="1" stroke-opacity="0"></use></g></g><g><use xlink:href="#b4sQQFltW" opacity="1" fill="#fbdb1a" fill-opacity="1"></use><g><use xlink:href="#b4sQQFltW" opacity="1" fill-opacity="0" stroke="#000000" stroke-width="1" stroke-opacity="0"></use></g></g><g><use xlink:href="#eH5DyYni8" opacity="1" fill="#fbdb1a" fill-opacity="1"></use><g><use xlink:href="#eH5DyYni8" opacity="1" fill-opacity="0" stroke="#000000" stroke-width="1" stroke-opacity="0"></use></g></g></g></g></svg>