<?xml version="1.0" encoding="UTF-8" standalone="no"?>
<!DOCTYPE svg PUBLIC "-//W3C//DTD SVG 1.1//EN" "http://www.w3.org/Graphics/SVG/1.1/DTD/svg11.dtd">
<svg version="1.1" xmlns="http://www.w3.org/2000/svg" xmlns:xlink="http://www.w3.org/1999/xlink" preserveAspectRatio="xMidYMid meet" viewBox="0 0 640 640" width="640" height="640"><defs><path d="M351.72 245.56L466.72 245.56L466.72 396.72L351.72 396.72L351.72 245.56Z" id="b2J9LmweSq"></path><path d="M451.36 300.61C451.36 323.37 432.16 341.86 408.51 341.86C384.86 341.86 365.66 323.37 365.66 300.61C365.66 277.84 384.86 259.36 408.51 259.36C432.16 259.36 451.36 277.84 451.36 300.61Z" id="b6tRltaI"></path><path d="M448.19 336.38C452.29 336.38 455.61 339.7 455.61 343.79C455.61 352.41 455.61 370.84 455.61 379.46C455.61 383.56 452.29 386.88 448.19 386.88C430.84 386.88 386.18 386.88 368.83 386.88C364.73 386.88 361.41 383.56 361.41 379.46C361.41 370.84 361.41 352.41 361.41 343.79C361.41 339.7 364.73 336.38 368.83 336.38C386.18 336.38 430.84 336.38 448.19 336.38Z" id="c2hovN9jFL"></path><path d="M448.01 300.61C448.01 321.65 430.31 338.73 408.51 338.73C386.71 338.73 369.01 321.65 369.01 300.61C369.01 279.57 386.71 262.48 408.51 262.48C430.31 262.48 448.01 279.57 448.01 300.61Z" id="d5Ic1a6F9"></path><path d="M441.94 341.86C447.54 341.86 452.07 346.39 452.07 351.98C452.07 357.96 452.07 365.76 452.07 371.73C452.07 377.32 447.54 381.86 441.94 381.86C426.83 381.86 391.61 381.86 376.49 381.86C370.9 381.86 366.37 377.32 366.37 371.73C366.37 365.76 366.37 357.96 366.37 351.98C366.37 346.39 370.9 341.86 376.49 341.86C391.61 341.86 426.83 341.86 441.94 341.86Z" id="a1JavL7CFT"></path><path d="M411.87 317.6L366.37 363.1L411.87 363.1L411.87 317.6Z" id="a5Z8cNbPKq"></path><path d="M410.82 320L452.07 365.5L410.82 365.5L410.82 320Z" id="a40sANNYki"></path><path d="M353.87 253.36C353.87 251.4 355.56 249.8 357.65 249.79C359.72 249.79 361.41 251.39 361.41 253.35C361.41 255.31 359.72 256.91 357.65 256.91C355.56 256.91 353.87 255.32 353.87 253.36Z" id="ahsetshLu"></path><path d="M455.61 253.36C455.61 251.4 457.3 249.8 459.38 249.79C461.46 249.79 463.15 251.39 463.15 253.35C463.15 255.31 461.46 256.91 459.38 256.91C457.3 256.91 455.61 255.32 455.61 253.36Z" id="h25lpektKq"></path><path d="M353.87 390.44C353.87 388.48 355.56 386.87 357.65 386.87C359.72 386.87 361.41 388.47 361.41 390.43C361.41 392.39 359.72 393.99 357.65 393.99C355.56 393.99 353.87 392.4 353.87 390.44Z" id="d2d1tpKzKh"></path><path d="M455.61 390.44C455.61 388.48 457.3 386.88 459.38 386.88C461.46 386.88 463.15 388.48 463.15 390.44C463.15 392.4 461.46 393.99 459.38 393.99C457.3 394 455.61 392.4 455.61 390.44Z" id="ahy0MLvlJ"></path><path d="M353.87 321.17C353.87 319.21 355.56 317.6 357.65 317.6C359.72 317.6 361.41 319.2 361.41 321.16C361.41 323.12 359.72 324.72 357.65 324.72C355.56 324.72 353.87 323.13 353.87 321.17Z" id="aqrriOg4b"></path><path d="M455.61 321.17C455.61 319.21 457.3 317.6 459.38 317.6C461.46 317.6 463.15 319.2 463.15 321.16C463.15 323.12 461.46 324.72 459.38 324.72C457.3 324.72 455.61 323.13 455.61 321.17Z" id="bmrYVxAlZ"></path><path d="M437.99 308.73L380.45 308.77L380.45 281.51L437.99 281.46L437.99 308.73Z" id="adNTZhzef"></path><path d="M369.72 348.82L448.72 348.82L448.72 374.9L369.72 374.9L369.72 348.82Z" id="ezYEj4xma"></path><path d="M375.52 354.41L441.5 354.41L441.5 357.66L375.52 357.66L375.52 354.41Z" id="aOrZnchJL"></path><path d="M375.52 361.48L441.5 361.48L441.5 364.73L375.52 364.73L375.52 361.48Z" id="aNyMPRrba"></path><path d="M375.52 367.52L441.5 367.52L441.5 370.77L375.52 370.77L375.52 367.52Z" id="eBgvt2Tqk"></path></defs><g><g><g><use xlink:href="#b2J9LmweSq" opacity="1" fill="#c3c7d2" fill-opacity="1"></use></g><g><use xlink:href="#b6tRltaI" opacity="1" fill="#d9dee5" fill-opacity="1"></use></g><g><use xlink:href="#c2hovN9jFL" opacity="1" fill="#d9dee5" fill-opacity="1"></use></g><g><use xlink:href="#d5Ic1a6F9" opacity="1" fill="#9b9faa" fill-opacity="1"></use></g><g><use xlink:href="#a1JavL7CFT" opacity="1" fill="#9b9faa" fill-opacity="1"></use></g><g><use xlink:href="#a5Z8cNbPKq" opacity="1" fill="#9b9faa" fill-opacity="1"></use></g><g><use xlink:href="#a40sANNYki" opacity="1" fill="#9b9faa" fill-opacity="1"></use></g><g><use xlink:href="#ahsetshLu" opacity="1" fill="#9ca0ab" fill-opacity="1"></use><g><use xlink:href="#ahsetshLu" opacity="1" fill-opacity="0" stroke="#000000" stroke-width="1" stroke-opacity="0"></use></g></g><g><use xlink:href="#h25lpektKq" opacity="1" fill="#9ca0ab" fill-opacity="1"></use><g><use xlink:href="#h25lpektKq" opacity="1" fill-opacity="0" stroke="#000000" stroke-width="1" stroke-opacity="0"></use></g></g><g><use xlink:href="#d2d1tpKzKh" opacity="1" fill="#9ca0ab" fill-opacity="1"></use><g><use xlink:href="#d2d1tpKzKh" opacity="1" fill-opacity="0" stroke="#000000" stroke-width="1" stroke-opacity="0"></use></g></g><g><use xlink:href="#ahy0MLvlJ" opacity="1" fill="#9ca0ab" fill-opacity="1"></use><g><use xlink:href="#ahy0MLvlJ" opacity="1" fill-opacity="0" stroke="#000000" stroke-width="1" stroke-opacity="0"></use></g></g><g><use xlink:href="#aqrriOg4b" opacity="1" fill="#9ca0ab" fill-opacity="1"></use><g><use xlink:href="#aqrriOg4b" opacity="1" fill-opacity="0" stroke="#000000" stroke-width="1" stroke-opacity="0"></use></g></g><g><use xlink:href="#bmrYVxAlZ" opacity="1" fill="#9ca0ab" fill-opacity="1"></use><g><use xlink:href="#bmrYVxAlZ" opacity="1" fill-opacity="0" stroke="#000000" stroke-width="1" stroke-opacity="0"></use></g></g><g><use xlink:href="#adNTZhzef" opacity="1" fill="#4a7ddc" fill-opacity="1"></use><g><use xlink:href="#adNTZhzef" opacity="1" fill-opacity="0" stroke="#000000" stroke-width="1" stroke-opacity="0"></use></g></g><g><use xlink:href="#ezYEj4xma" opacity="1" fill="#dce0eb" fill-opacity="1"></use></g><g><use xlink:href="#aOrZnchJL" opacity="1" fill="#5c606b" fill-opacity="1"></use></g><g><use xlink:href="#aNyMPRrba" opacity="1" fill="#5c606b" fill-opacity="1"></use></g><g><use xlink:href="#eBgvt2Tqk" opacity="1" fill="#5c606b" fill-opacity="1"></use></g></g></g></svg>