<?xml version="1.0" encoding="UTF-8" standalone="no"?>
<!DOCTYPE svg PUBLIC "-//W3C//DTD SVG 1.1//EN" "http://www.w3.org/Graphics/SVG/1.1/DTD/svg11.dtd">
<svg version="1.1" xmlns="http://www.w3.org/2000/svg" xmlns:xlink="http://www.w3.org/1999/xlink" preserveAspectRatio="xMidYMid meet" viewBox="0 0 640 486.71" width="640" height="486.71"><defs><path d="M0 486.71L0 0L640 0L640 486.71L0 486.71Z" id="adITwcGcG"></path><path d="M0 486.71L0 0L640 0L640 486.71L0 486.71Z" id="i80t42jmWq"></path><path d="M0 486.71L0 0L640 0L640 486.71L0 486.71Z" id="a1keBBBXRK"></path><path d="M0 486.71L0 0L640 0L640 486.71L0 486.71Z" id="g1sgQkjCKk"></path><path d="M14.63 475.75L14.63 13.37L626.59 13.37L626.59 475.75L14.63 475.75Z" id="j6vNY19zer"></path><path d="M14.63 475.75L14.63 13.37L626.59 13.37L626.59 475.75L14.63 475.75Z" id="c2joI9u3YH"></path><path d="M14.63 475.75L14.63 13.37L626.59 13.37L626.59 475.75L14.63 475.75Z" id="d3GME9v9U"></path><path d="M14.63 475.75L14.63 13.37L626.59 13.37L626.59 475.75L14.63 475.75Z" id="anv6Qtfd3"></path><path d="M431.32 475.75L431.32 13.37L626.59 13.37L626.59 475.75L431.32 475.75Z" id="b2Nh66V8La"></path><path d="M431.32 475.75L431.32 13.37L626.59 13.37L626.59 475.75L431.32 475.75Z" id="c6UFDv50K"></path><path d="M431.32 475.75L431.32 13.37L626.59 13.37L626.59 475.75L431.32 475.75Z" id="a3wpbTtojF"></path><path d="M431.32 475.75L431.32 13.37L626.59 13.37L626.59 475.75L431.32 475.75Z" id="b19aZsKzax"></path><path d="M426.01 480.52L426.01 8.6L436.63 8.6L436.63 480.52L426.01 480.52Z" id="cUghn3cii"></path><path d="M426.01 480.52L426.01 8.6L436.63 8.6L436.63 480.52L426.01 480.52Z" id="aL7TXh16V"></path><path d="M426.01 480.52L426.01 8.6L436.63 8.6L436.63 480.52L426.01 480.52Z" id="cu5JHFNQ"></path><path d="M426.01 480.52L426.01 8.6L436.63 8.6L436.63 480.52L426.01 480.52Z" id="a17ALC1QJr"></path></defs><g><g><g><use xlink:href="#adITwcGcG" opacity="1" fill="#353639" fill-opacity="1"></use><g><use xlink:href="#adITwcGcG" opacity="1" fill-opacity="0" stroke="#000000" stroke-width="1" stroke-opacity="0"></use></g></g><g><use xlink:href="#i80t42jmWq" opacity="1" fill="#000000" fill-opacity="0"></use><g><use xlink:href="#i80t42jmWq" opacity="1" fill-opacity="0" stroke="#000000" stroke-width="1" stroke-opacity="0"></use></g></g><g><use xlink:href="#a1keBBBXRK" opacity="1" fill="#000000" fill-opacity="0"></use><g><use xlink:href="#a1keBBBXRK" opacity="1" fill-opacity="0" stroke="#000000" stroke-width="1" stroke-opacity="0"></use></g></g><g><use xlink:href="#g1sgQkjCKk" opacity="1" fill="#000000" fill-opacity="0"></use><g><use xlink:href="#g1sgQkjCKk" opacity="1" fill-opacity="0" stroke="#000000" stroke-width="1" stroke-opacity="0"></use></g></g><g><use xlink:href="#j6vNY19zer" opacity="1" fill="#4e525d" fill-opacity="1"></use><g><use xlink:href="#j6vNY19zer" opacity="1" fill-opacity="0" stroke="#000000" stroke-width="1" stroke-opacity="0"></use></g></g><g><use xlink:href="#c2joI9u3YH" opacity="1" fill="#000000" fill-opacity="0"></use><g><use xlink:href="#c2joI9u3YH" opacity="1" fill-opacity="0" stroke="#000000" stroke-width="1" stroke-opacity="0"></use></g></g><g><use xlink:href="#d3GME9v9U" opacity="1" fill="#000000" fill-opacity="0"></use><g><use xlink:href="#d3GME9v9U" opacity="1" fill-opacity="0" stroke="#000000" stroke-width="1" stroke-opacity="0"></use></g></g><g><use xlink:href="#anv6Qtfd3" opacity="1" fill="#000000" fill-opacity="0"></use><g><use xlink:href="#anv6Qtfd3" opacity="1" fill-opacity="0" stroke="#000000" stroke-width="1" stroke-opacity="0"></use></g></g><g><use xlink:href="#b2Nh66V8La" opacity="1" fill="#595f6c" fill-opacity="1"></use><g><use xlink:href="#b2Nh66V8La" opacity="1" fill-opacity="0" stroke="#000000" stroke-width="1" stroke-opacity="0"></use></g></g><g><use xlink:href="#c6UFDv50K" opacity="1" fill="#000000" fill-opacity="0"></use><g><use xlink:href="#c6UFDv50K" opacity="1" fill-opacity="0" stroke="#000000" stroke-width="1" stroke-opacity="0"></use></g></g><g><use xlink:href="#a3wpbTtojF" opacity="1" fill="#000000" fill-opacity="0"></use><g><use xlink:href="#a3wpbTtojF" opacity="1" fill-opacity="0" stroke="#000000" stroke-width="1" stroke-opacity="0"></use></g></g><g><use xlink:href="#b19aZsKzax" opacity="1" fill="#000000" fill-opacity="0"></use><g><use xlink:href="#b19aZsKzax" opacity="1" fill-opacity="0" stroke="#000000" stroke-width="1" stroke-opacity="0"></use></g></g><g><use xlink:href="#cUghn3cii" opacity="1" fill="#353639" fill-opacity="1"></use><g><use xlink:href="#cUghn3cii" opacity="1" fill-opacity="0" stroke="#000000" stroke-width="1" stroke-opacity="0"></use></g></g><g><use xlink:href="#aL7TXh16V" opacity="1" fill="#000000" fill-opacity="0"></use><g><use xlink:href="#aL7TXh16V" opacity="1" fill-opacity="0" stroke="#000000" stroke-width="1" stroke-opacity="0"></use></g></g><g><use xlink:href="#cu5JHFNQ" opacity="1" fill="#000000" fill-opacity="0"></use><g><use xlink:href="#cu5JHFNQ" opacity="1" fill-opacity="0" stroke="#000000" stroke-width="1" stroke-opacity="0"></use></g></g><g><use xlink:href="#a17ALC1QJr" opacity="1" fill="#000000" fill-opacity="0"></use><g><use xlink:href="#a17ALC1QJr" opacity="1" fill-opacity="0" stroke="#000000" stroke-width="1" stroke-opacity="0"></use></g></g></g></g></svg>