<?xml version="1.0" encoding="UTF-8" standalone="no"?>
<!DOCTYPE svg PUBLIC "-//W3C//DTD SVG 1.1//EN" "http://www.w3.org/Graphics/SVG/1.1/DTD/svg11.dtd">
<svg version="1.1" xmlns="http://www.w3.org/2000/svg" xmlns:xlink="http://www.w3.org/1999/xlink" preserveAspectRatio="xMidYMid meet" viewBox="0 0 640 640" width="640" height="640"><defs><path d="M123.7 495.45L123.7 505.53L120.29 505.53L120.29 495.45L123.7 495.45Z" id="d8lcgHI60"></path><path d="M191.22 504.05L191.22 518.21L113.61 518.21L113.61 504.05L191.22 504.05Z" id="a36Lgxp4aO"></path><path d="M184.99 495.45L184.99 505.53L181.58 505.53L181.58 495.45L184.99 495.45Z" id="eKMvhBbLo"></path><path d="M198 497.14L198 502.33L51.06 502.33L51.06 497.14L198 497.14Z" id="d2qEYgHsH"></path><path d="M108.83 504.7C108.83 506.28 108.83 509.07 108.83 510.66C108.83 511.74 108.26 512.61 107.55 512.61C106.9 512.61 106.22 512.61 105.57 512.61C104.86 512.61 104.29 511.74 104.29 510.66C104.29 509.07 104.29 506.28 104.29 504.7C104.29 503.62 104.86 502.74 105.57 502.74C106.22 502.74 106.9 502.74 107.55 502.74C108.26 502.74 108.83 503.62 108.83 504.7Z" id="f4o0bcFti"></path><path d="M90.93 504.7C90.93 506.28 90.93 509.07 90.93 510.66C90.93 511.74 90.36 512.61 89.66 512.61C89 512.61 88.32 512.61 87.67 512.61C86.96 512.61 86.39 511.74 86.39 510.66C86.39 509.07 86.39 506.28 86.39 504.7C86.39 503.62 86.96 502.74 87.67 502.74C88.32 502.74 89 502.74 89.66 502.74C90.36 502.74 90.93 503.62 90.93 504.7Z" id="f68vk5zn5"></path><path d="M65.02 500.49L65.02 503.55L58.48 503.55L58.48 500.49L65.02 500.49Z" id="adrj0X9yt"></path><path d="M75.38 501.33L75.38 505.22L67.57 505.22L67.57 501.33L75.38 501.33Z" id="b1G0ZONWKT"></path><path d="M101.93 502.33L101.93 514.14L94.11 514.14L94.11 502.33L101.93 502.33Z" id="aMp11EbNW"></path><path d="M101.68 502.21L101.68 510.8L95.14 510.8L95.14 502.21L101.68 502.21Z" id="amfA7Nuew"></path><path d="M114.12 500.84L114.12 504.65L102.31 504.65L102.31 500.84L114.12 500.84Z" id="b46oYH9pje"></path><path d="M91.64 501.18L91.64 504.31L81.14 504.31L81.14 501.18L91.64 501.18Z" id="hH7YYlQDf"></path></defs><g><g><g><use xlink:href="#d8lcgHI60" opacity="1" fill="#dbd9d9" fill-opacity="1"></use><g><use xlink:href="#d8lcgHI60" opacity="1" fill-opacity="0" stroke="#000000" stroke-width="1" stroke-opacity="0"></use></g></g><g><use xlink:href="#a36Lgxp4aO" opacity="1" fill="#dbd9d9" fill-opacity="1"></use><g><use xlink:href="#a36Lgxp4aO" opacity="1" fill-opacity="0" stroke="#000000" stroke-width="1" stroke-opacity="0"></use></g></g><g><use xlink:href="#eKMvhBbLo" opacity="1" fill="#dbd9d9" fill-opacity="1"></use><g><use xlink:href="#eKMvhBbLo" opacity="1" fill-opacity="0" stroke="#000000" stroke-width="1" stroke-opacity="0"></use></g></g><g><use xlink:href="#d2qEYgHsH" opacity="1" fill="#494747" fill-opacity="1"></use><g><use xlink:href="#d2qEYgHsH" opacity="1" fill-opacity="0" stroke="#000000" stroke-width="1" stroke-opacity="0"></use></g></g><g><use xlink:href="#f4o0bcFti" opacity="1" fill="#948e8e" fill-opacity="1"></use><g><use xlink:href="#f4o0bcFti" opacity="1" fill-opacity="0" stroke="#000000" stroke-width="1" stroke-opacity="0"></use></g></g><g><use xlink:href="#f68vk5zn5" opacity="1" fill="#948e8e" fill-opacity="1"></use><g><use xlink:href="#f68vk5zn5" opacity="1" fill-opacity="0" stroke="#000000" stroke-width="1" stroke-opacity="0"></use></g></g><g><use xlink:href="#adrj0X9yt" opacity="1" fill="#494747" fill-opacity="1"></use><g><use xlink:href="#adrj0X9yt" opacity="1" fill-opacity="0" stroke="#000000" stroke-width="1" stroke-opacity="0"></use></g></g><g><use xlink:href="#b1G0ZONWKT" opacity="1" fill="#494747" fill-opacity="1"></use><g><use xlink:href="#b1G0ZONWKT" opacity="1" fill-opacity="0" stroke="#000000" stroke-width="1" stroke-opacity="0"></use></g></g><g><use xlink:href="#aMp11EbNW" opacity="1" fill="#b4b2b2" fill-opacity="1"></use><g><use xlink:href="#aMp11EbNW" opacity="1" fill-opacity="0" stroke="#000000" stroke-width="1" stroke-opacity="0"></use></g></g><g><use xlink:href="#amfA7Nuew" opacity="1" fill="#393939" fill-opacity="1"></use><g><use xlink:href="#amfA7Nuew" opacity="1" fill-opacity="0" stroke="#000000" stroke-width="1" stroke-opacity="0"></use></g></g><g><use xlink:href="#b46oYH9pje" opacity="1" fill="#494747" fill-opacity="1"></use><g><use xlink:href="#b46oYH9pje" opacity="1" fill-opacity="0" stroke="#000000" stroke-width="1" stroke-opacity="0"></use></g></g><g><use xlink:href="#hH7YYlQDf" opacity="1" fill="#494747" fill-opacity="1"></use><g><use xlink:href="#hH7YYlQDf" opacity="1" fill-opacity="0" stroke="#000000" stroke-width="1" stroke-opacity="0"></use></g></g></g></g></svg>